<svg version="1.2" xmlns="http://www.w3.org/2000/svg" viewBox="0 0 719 728"><style>.a{fill:currentColor}</style><path fill-rule="evenodd" class="a" d="m329.5 0.2c8.3-0.1 22.6 0.5 32 1.3 9.4 0.8 22 2.4 28 3.5 6 1.2 14.6 3 19 4.1 4.4 1.1 13.6 3.8 20.5 6.1 6.9 2.2 16.3 5.6 21 7.6 4.7 1.9 14.4 6.4 21.5 9.9 7.1 3.6 17.5 9.3 23 12.6 5.5 3.3 14.7 9.4 20.5 13.5 5.8 4.1 14.1 10.4 18.5 14 4.4 3.6 11.8 10 16.4 14.1 4.6 4.2 12.8 12.5 18.3 18.6 5.5 6.1 13.9 16.2 18.7 22.5 4.9 6.3 11.8 16 15.3 21.5 3.6 5.5 9.2 14.9 12.5 21 3.3 6.1 8.8 17.3 12.2 25 3.4 7.7 8.2 19.9 10.6 27 2.5 7.1 5.8 18.4 7.5 25 1.7 6.6 4.2 18.5 5.5 26.5 1.4 8 2.9 19 3.5 24.5 0.5 5.5 1 20.4 1 33 0 12.6-0.5 27.3-1 32.5-0.6 5.2-1.9 14.9-3 21.5-1.2 6.6-3.2 16.5-4.6 22-1.3 5.5-4.3 15.9-6.5 23-2.3 7.1-4.7 14.2-6.9 18.5h-52.3c-47.9 0-52.8 0.1-59.7 1.9-4.1 1-10.2 3.2-13.5 4.9-3.3 1.7-7.4 4-9 5.1-1.6 1.2-5.8 4.9-9.3 8.3-4 4-7.7 9-10.1 13.8-2.2 4.1-4.6 9.7-5.4 12.5-0.8 2.7-1.8 8.8-2.2 13.5-0.4 4.7-1 8-1.4 7.5-0.4-0.5-2.8-7.8-5.4-16-2.5-8.3-7.5-24.5-11-36-3.6-11.5-7-23.3-9-31l4.8-6c2.7-3.3 6.9-9.1 9.4-13 2.5-3.9 6.4-11 8.7-16 2.3-5 5.5-13 7.2-18 1.6-5 3.8-12.8 4.8-17.5 1.5-6.9 1.9-12.6 1.9-30-0.1-19.1-0.3-22.5-2.4-31-1.3-5.2-3.7-13.3-5.3-18-1.7-4.7-5.6-13.7-8.9-20-3.3-6.3-8.9-15.6-12.6-20.5-3.7-4.9-11.1-13.2-16.3-18.3-5.3-5.3-14.1-12.5-20-16.4-5.8-3.9-13.9-8.7-18-10.8-4.1-2.1-11.8-5.3-17-7.3-5.2-2-14.5-4.6-20.5-5.9-9.5-2-13.9-2.3-32-2.3-17.8 0-22.6 0.3-31.5 2.2-5.8 1.2-15.2 3.9-21 5.9-5.8 2-14.8 5.8-20 8.5-5.2 2.7-13.8 7.9-19 11.7-5.2 3.7-13.5 10.8-18.5 15.7-4.9 5-12.1 13.3-15.8 18.5-3.7 5.2-9.4 14.9-12.7 21.5-3.3 6.6-7.1 15.6-8.6 20-1.4 4.4-3.4 11.8-4.5 16.5-1 4.7-2.3 13.6-2.9 19.8-0.7 7.8-0.7 14.6 0 22.4 0.6 6.2 1.9 15.1 2.9 19.8 1.1 4.7 2.8 11.3 4 14.8 1.2 3.4 4 10.6 6.4 15.9 2.3 5.4 7.3 14.4 17.7 30.3l-3.1 10.7c-1.7 6-7.1 24.1-11.9 40.3-4.9 16.2-12.3 40.8-16.5 54.5-4.2 13.8-10 33.1-12.9 43-4.9 16.5-5.3 18.6-4.7 24.8 0.4 4.3 0.2 6.6-0.4 6.4-0.6-0.2-4.8-2.8-9.5-5.7-4.7-2.9-14.6-9.8-22-15.4-8.7-6.5-19.2-15.7-29.6-26.1-8.9-8.8-19.1-19.8-22.8-24.5-3.7-4.7-11.1-15-16.4-23-5.4-8-12.9-20.6-16.9-28-3.9-7.4-9.4-18.9-12.1-25.5-2.7-6.6-7-18.3-9.5-26-2.5-7.7-5.7-18.5-7.1-24-1.4-5.5-3.4-15.2-4.5-21.5-1.1-6.3-2.4-16-3-21.5-0.6-5.5-1.3-15.9-1.7-23-0.3-7.4-0.1-19.7 0.5-28.5 0.7-8.5 1.9-20.2 2.7-26 0.8-5.8 2.1-14.3 3-19 0.9-4.7 2.9-13.7 4.4-20 1.6-6.3 4.9-17.4 7.4-24.5 2.4-7.1 6.5-17.9 9.1-24 2.6-6.1 6.7-14.9 9.1-19.7 2.4-4.9 7.3-13.6 10.8-19.5 3.5-6 9.9-15.7 14.1-21.8 4.2-6.1 10.9-14.8 14.8-19.5 3.9-4.7 12.3-13.8 18.7-20.4 6.3-6.5 16.4-16 22.5-21.1 6.1-5.1 15.9-12.8 22-17 6.1-4.2 14.6-9.8 19-12.4 4.4-2.6 11.8-6.8 16.5-9.4 4.7-2.5 13.7-6.8 20-9.5 6.3-2.7 16-6.5 21.5-8.5 5.5-2 15.2-5.1 21.5-7.1 6.3-1.9 18-4.8 26-6.4 8-1.6 18.1-3.5 22.5-4.1 4.4-0.7 12.5-1.6 18-2 5.5-0.5 16.8-0.9 25-0.9zm-55.3 80.6c-1.2 0.7-3.1 2.7-4.2 4.5-1.5 2.5-2 5.1-2 12.2 0 7.8 0.3 9.5 2.2 12.5 1.3 1.9 3.9 4.3 5.8 5.2 3.2 1.6 7.9 1.8 52 1.8l48.5 0.1c5.3-3.6 7.8-5.9 8.9-7.4 1.8-2.4 2.1-4.3 2.1-12 0-7.9-0.3-9.7-2.3-12.4-1.2-1.8-3.7-4.1-5.5-5-2.9-1.6-7.3-1.8-49.7-1.8-25.6 0-48.1 0.3-50 0.6-1.9 0.3-4.5 1.1-5.7 1.7zm50.2 320.5c67.8 0.2 70.1 0.3 73.9 2.2 2.2 1.1 5.2 3.6 6.7 5.5 2.2 2.7 4.9 10.9 12.3 36.5 5.2 18.1 14.2 49 20.1 68.5 5.8 19.5 13.7 46.1 17.6 59 5.8 19.2 7 24.3 6.5 27.8-0.3 2.3-1.5 5.9-2.5 8-1 2-3 4.7-4.3 5.9-1.2 1.2-4.3 3.1-6.8 4.2-4.4 2-5.9 2.1-124 2.1-87.7 0-120.4-0.3-123-1.1-1.9-0.7-5-2.2-6.8-3.5-1.7-1.3-4.4-4.5-5.9-7.1-2.1-3.6-2.8-6.1-2.8-10.3 0-3.9 1.7-11.1 5.9-24.5 3.2-10.5 8.5-28 11.8-39 3.2-11 10.8-36.6 16.8-57 6-20.4 12.6-43.3 14.8-51 2.1-7.7 4.8-15.4 5.9-17 1.1-1.6 2.9-3.8 3.9-4.7 1.1-1 3.7-2.4 5.9-3.3 3.4-1.2 14.4-1.4 74-1.2zm369 78.2l5.5 2.7c3 1.4 7.5 4.6 9.9 7 2.4 2.4 5.5 6.6 9.6 14.3v182l-2.5 5c-1.3 2.8-4.3 6.8-6.5 9-2.2 2.2-6.3 5.1-14 9h-171l-5-2.6c-2.8-1.5-7.2-5.1-9.8-8-2.7-3-5.7-7.8-6.8-10.6-1.8-5.1-1.9-8.4-1.4-182.8l2.7-5.5c1.4-3 4.6-7.5 7-9.9 2.4-2.4 6-5.2 8-6.2 2.1-1.1 5.5-2.3 7.5-2.8 2.2-0.5 38.9-0.9 166.8-0.6zm-144.6 73.1c-1.1 1.6-2.5 4.5-3.1 6.4-0.5 1.9-0.7 4.9-0.4 6.5 0.4 1.6 1.8 4.7 3.1 6.8 1.7 2.5 3.9 4.2 6.7 5.2 3.7 1.4 11.6 1.5 56.9 1.3l52.6-0.3c5.3-4 7.6-6.9 8.7-9.1 1.3-2.8 1.7-5.1 1.3-8.4-0.3-2.5-1.4-5.6-2.5-7-1.1-1.4-3.2-3.4-4.6-4.5-2.7-1.9-4.5-2-56.4-2.2-43.3-0.2-54.3 0-57 1.1-1.8 0.8-4.2 2.7-5.3 4.2zm3.8 60.7c-1.5 0.9-3.6 3.2-4.7 5-1.3 2-2 5-2 8.2 0 3.6 0.6 6 2.2 8.5 1.3 1.9 3.9 4.3 5.8 5.2 3.2 1.6 8.1 1.8 56.5 1.8l53 0.1c5.3-3.6 7.7-5.7 8.7-7.1 1.1-1.4 2.1-4.5 2.4-7 0.4-3.4 0-5.5-1.8-9-1.3-2.6-3.7-5.3-5.8-6.5-3.4-1.9-5.3-2-54.5-2.2-28-0.1-52.4 0.2-54 0.6-1.7 0.3-4.2 1.4-5.8 2.4zm-351.7 37.7h248v28.3c0 27.8 0 28.3-2.4 33.2-1.3 2.8-4.2 6.5-6.3 8.4-2.1 1.9-5.6 4.3-7.8 5.2-3.8 1.7-10.4 1.8-107 2-100.1 0.1-103.1 0.1-107.5-1.8-2.5-1.1-6-3.3-7.8-4.9-1.9-1.6-4.7-5.6-9.2-14.9z"/></svg>