<svg version="1.2" xmlns="http://www.w3.org/2000/svg" viewBox="0 0 757 770"><style>.a{fill:currentColor}</style><path fill-rule="evenodd" class="a" d="m339 0.2c5.2-0.1 16 0.3 24 0.8 8 0.6 21.3 1.9 29.5 3 8.3 1.1 21.3 3.5 29 5.4 7.7 1.9 20.5 5.7 28.5 8.4 8 2.8 18.8 6.9 24 9.2 5.2 2.3 14.2 6.6 20 9.5 5.8 3 15 8.2 20.6 11.7 5.5 3.5 14.3 9.3 19.5 13 5.2 3.7 14.1 10.6 19.9 15.4 5.8 4.8 17.1 15.3 25.1 23.3 8 8 19.4 20.7 25.3 28.1 5.9 7.4 13.5 17.8 17 23 3.5 5.2 8.5 13.1 11.1 17.5 2.6 4.4 7.6 13.7 11.1 20.7 3.5 7.1 8.2 17.2 10.4 22.5 2.3 5.4 6.1 16.1 8.6 23.8 2.5 7.7 5.3 17.4 6.4 21.5 1 4.1 3 13.1 4.4 20 1.4 6.9 3.2 18.6 4.1 26 0.8 7.4 1.8 21.4 2.1 31 0.4 10.5 0.2 24.3-0.5 34.5-0.7 9.4-1.8 21.3-2.6 26.5-0.8 5.2-2.4 14-3.5 19.5-1.1 5.5-3.6 15.9-5.5 23-1.8 7.1-5.2 18.3-11.5 36.5l-58.8 0.3c-56.7 0.2-58.9 0.3-64.2 2.3-3 1.2-7.1 2.9-9 3.9-1.9 1-5.5 3.3-8 5.2-2.5 1.9-6.6 5.9-9.2 9.1-2.7 3.1-6.1 8.4-7.7 11.7-1.7 3.3-3.7 8.7-4.5 12-1.1 4-1.7 11.9-1.8 23.8-0.2 9.9-0.6 18.1-1.1 18.3-0.4 0.2-1.1-1.7-1.7-4.4-0.5-2.6-3.9-14.6-7.5-26.7-3.6-12.1-9.7-33.1-20.5-71.5l6.1-6.8c3.3-3.7 8.8-10.7 12.1-15.7 3.3-5 7.7-12.4 9.8-16.5 2.1-4.1 5.3-11.8 7.3-17 2-5.2 4.5-14 5.6-19.5 1.1-5.5 2.5-15.9 3-23 0.6-8.2 0.6-16.9 0.1-23.5-0.5-5.8-1.7-14.3-2.6-19-0.9-4.7-2.9-12.5-4.6-17.5-1.7-5-4.8-12.6-6.9-17-2.1-4.4-5.3-10.5-7.1-13.5-1.8-3-6.7-10-10.8-15.4-4.1-5.4-11.3-13.5-16-18-4.7-4.5-12.4-11-17-14.5-4.7-3.5-11.6-8.2-15.5-10.4-3.9-2.2-10.6-5.7-15-7.7-4.4-2.1-11.6-4.9-16-6.3-4.4-1.5-11.8-3.5-16.5-4.6-4.7-1.1-14.1-2.5-21-3.2-9.8-1-15.4-1-26 0-7.4 0.7-17.5 2.1-22.5 3.2-5 1-12.6 3.1-17 4.5-4.4 1.4-13.4 5.2-20 8.4-6.6 3.2-16.7 8.9-22.5 12.8-5.8 3.9-14.5 10.6-19.4 14.9-4.9 4.3-12.3 11.9-16.4 16.8-4.2 4.9-9.6 12.1-12.1 16-2.6 3.9-6.9 11.5-9.8 17-2.8 5.5-6.4 13.8-8.1 18.5-1.6 4.7-4 13.2-5.3 19-2.1 9.1-2.4 13.1-2.4 30.5 0 15.6 0.4 21.9 1.8 28.5 1 4.7 3.2 12.8 4.9 18 1.7 5.2 5.2 14 7.9 19.5 2.6 5.5 7.4 13.8 10.5 18.5 3.1 4.7 7.5 10.5 9.6 13 2.1 2.5 3.8 5.2 3.8 6 0 0.8-1.3 5.8-2.9 11-1.6 5.2-12.1 40.3-23.4 78-11.3 37.7-21.5 72.1-22.8 76.5-1.2 4.4-2.7 10.4-4.4 18.7l-11-7.7c-6.1-4.2-16.4-12-23-17.3-6.6-5.4-17.4-15.1-24-21.7-6.6-6.6-16.4-17.2-21.6-23.5-5.3-6.3-12.6-15.8-16.3-21-3.8-5.2-10.4-15.5-14.7-22.8-4.3-7.2-10.2-17.8-13-23.5-2.8-5.6-7.4-15.6-10.1-22.2-2.7-6.6-6.7-17.6-8.9-24.5-2.3-6.9-5.6-18.8-7.6-26.5-1.9-7.7-4.3-19-5.3-25-1-6-2.4-16.2-3.1-22.5-0.7-6.3-1.3-22.3-1.3-35.5 0-17 0.5-28.1 1.7-38 1-7.7 3.1-20.5 4.7-28.5 1.6-8 5-21.7 7.6-30.5 2.5-8.8 6.6-21.2 9.1-27.5 2.5-6.3 7.8-18.3 11.8-26.5 4-8.3 10.4-20.2 14.2-26.5 3.8-6.3 10.1-16 14-21.5 3.9-5.5 11.1-14.7 15.8-20.5 4.8-5.8 12.3-14.3 16.8-19 4.5-4.7 12.9-12.9 18.7-18.4 5.8-5.4 17.2-14.9 25.5-21.1 8.2-6.2 19.7-14.2 25.5-17.7 5.8-3.6 15.7-9.1 22-12.3 6.3-3.2 16.4-7.9 22.5-10.5 6.1-2.6 16.6-6.6 23.5-8.8 6.9-2.2 17-5.2 22.5-6.7 5.5-1.4 16.3-3.6 24-5 7.7-1.3 19.9-2.8 27-3.4 7.1-0.6 15-1.3 17.5-1.4 2.5-0.2 8.8-0.4 14-0.5zm-63.8 92.5c-1.8 2.1-3.5 5.4-3.9 7.3-0.3 1.9-0.4 5.6-0.2 8.1 0.3 2.9 1.4 5.8 3.1 8.2 1.6 2 4.2 4.4 5.8 5.2 2.6 1.3 11.5 1.5 61.5 1.5 53.6 0 58.8-0.1 62.2-1.8 2-0.9 4.8-3.5 6.2-5.6 1.7-2.5 2.7-5.8 3-9 0.3-3.7-0.2-6.3-1.7-9.6-1.2-2.5-3.4-5.4-4.9-6.6-1.5-1.1-4.4-2.6-6.3-3.3-2.6-0.9-18-1.1-58.9-0.9-39.8 0.2-56.5 0.6-59 1.5-2 0.7-5.1 2.9-6.9 5zm60.3 324.4c23.8 0 47 0.4 53.5 1 6.3 0.6 13.7 1.9 16.5 2.9 2.7 1.1 6.9 3.3 9.2 5 2.4 1.6 5.7 4.9 7.3 7.3 1.7 2.3 3.6 6 4.1 8.2 0.6 2.2 5 17.7 10 34.5 4.9 16.8 12.5 42.6 16.9 57.5 4.5 14.9 12.2 41.2 17.2 58.5 6.6 23 9.1 33 9.1 37 0 3-0.7 7.1-1.5 9-0.8 1.9-3 5.3-4.9 7.4-1.9 2.2-5.7 5-13.4 8.6h-121.5c-108.1 0-122-0.1-126-1.5-2.5-0.9-6-2.7-7.8-4.1-1.7-1.3-4.4-4.5-6-7.1-2.3-4.1-2.7-5.9-2.6-12.3 0-6.3 1.1-11 6.6-29 3.7-11.8 12.3-41.1 19.2-65 7-23.9 16.1-55.5 20.4-70.1 5.7-19.5 8.5-27.7 10.7-30.8 1.6-2.4 5.2-6 8-7.9 2.7-2 7.2-4.5 10-5.5 2.7-1.1 9-2.2 14-2.7 5-0.4 27.9-0.8 51-0.9zm400 84.9l5 2.3c2.7 1.3 6.8 4.4 9 6.8 2.3 2.6 4.8 6.9 5.8 10 1.6 5 1.7 10.8 1.2 151.4l-3 5.4c-1.7 2.9-4.3 6.5-6 7.9-1.7 1.3-4.8 3.4-7 4.6-3.8 2-5.5 2.1-71 2.6l-5.5 5v28h25.3c19.3 0 26.4 0.3 30.2 1.5 3.2 0.9 6.3 2.8 8.7 5.2 2 2.1 4.4 5.5 5.3 7.6 0.8 2 1.5 5.2 1.5 7 0 1.7-0.4 4.8-1 6.7-0.5 1.9-2.4 5.3-4.2 7.4-1.8 2.2-5.1 4.8-7.3 5.8-3.7 1.6-9.2 1.8-83.5 1.8-66.8 0-80.1-0.2-83-1.4-1.9-0.8-4.7-2.4-6.2-3.5-1.6-1.2-3.7-3.8-4.7-5.8-1-2.1-2.2-5.4-2.6-7.3-0.4-2.2-0.1-5.6 0.8-9 1.1-3.6 2.7-6.6 4.9-8.6 1.8-1.8 4.9-4 6.8-5 3.1-1.7 6.4-1.9 58-2.4v-14.2c0.1-13.6-0.1-14.4-2.2-16.5-2.3-2.2-2.9-2.2-35.8-2.5-31.4-0.3-33.8-0.4-38-2.4-2.5-1.1-6.3-3.8-8.4-6-2.2-2.1-4.9-5.9-6-8.4-2-4.4-2.1-6.2-2.4-74.5-0.2-38.5-0.1-72.3 0.3-75 0.3-3 1.8-7.1 3.8-10.4 1.7-3 4.8-6.7 6.7-8.3 1.9-1.5 5.3-3.5 7.5-4.3 3.4-1.2 18.8-1.4 197-1.5zm-171 55.8c-2.3 3.4-3.1 5.7-3.3 10-0.3 4.4 0.2 6.7 2 10.2 1.3 2.5 3.9 5.5 5.8 6.8 1.9 1.3 5.3 2.8 7.5 3.3 2.2 0.6 5.6 0.9 7.5 0.7 1.9-0.3 5.6-1.7 8.2-3.1 3.3-1.9 5.5-4 7-6.9 1.5-2.9 2.2-6.1 2.2-9.8 0-4-0.7-6.7-2.6-10-1.9-3.4-3.9-5.2-7.9-7.3-3.5-1.8-7-2.7-9.9-2.7-2.7 0-6.3 0.9-9 2.2-2.6 1.4-5.7 4.1-7.5 6.6zm-1.2 71.2c-1.5 2.3-2.3 4.9-2.3 7.5 0 2.2 0.9 5.5 2 7.3 1.1 1.7 3.6 3.9 5.5 4.7 3 1.3 13 1.5 68.8 1.5 61.4 0 65.4-0.1 68.7-1.8 1.9-1 4.3-3.4 5.2-5.3 1-1.9 1.8-4.6 1.8-6.1 0-1.6-0.8-4.5-1.8-6.5-0.9-2-3.1-4.5-4.7-5.5-2.8-1.7-7.2-1.8-69.5-1.8-51.2 0-67.1 0.3-68.9 1.3-1.4 0.7-3.5 2.8-4.8 4.7zm-99.8 48.5l0.3 31.5c0.2 26.7 0 32.3-1.4 37-0.9 3-2.6 7.1-3.9 9-1.2 1.9-3.9 5-6.1 6.9-2.1 1.9-5.9 4.4-8.4 5.5-4.5 2.1-5.4 2.1-208.5 2.1l-5.5-2.7c-3-1.4-7.3-4.6-9.4-7-2.2-2.4-5.1-6.8-9.1-15.3l-0.3-32.3c-0.1-17.8 0-32.9 0.2-33.5 0.3-0.9 31.3-1.2 252.1-1.2z"/></svg>