<svg version="1.2" xmlns="http://www.w3.org/2000/svg" viewBox="0 0 732 768"><style>.a{fill:currentColor}</style><path fill-rule="evenodd" class="a" d="m339 0.2c10.7-0.1 24.7 0.3 31 0.8 6.3 0.6 14.9 1.5 19 2.1 4.1 0.5 12.2 1.9 18 3 5.8 1.2 15.3 3.4 21.3 5 5.9 1.6 16 4.7 22.4 6.8 6.5 2.2 16.1 5.8 21.3 8.1 5.2 2.3 15.8 7.4 23.5 11.3 7.7 4 20 11.2 27.5 16.1 7.4 4.9 16.2 10.9 19.5 13.4 3.3 2.5 8.9 7.1 12.5 10.1 3.6 3.1 10.7 9.4 15.9 14.1 5.2 4.7 13.9 13.4 19.4 19.5 5.4 6.1 14.3 16.9 19.7 24 5.3 7.1 12.4 17.3 15.7 22.5 3.3 5.2 9.2 15.4 13.1 22.5 4 7.1 9.6 18.6 12.6 25.5 3 6.9 7.2 17.9 9.5 24.5 2.2 6.6 5.3 16.9 7 23 1.6 6.1 4.1 16.9 5.5 24 1.4 7.1 3 16.4 3.6 20.5 0.5 4.1 1.4 13.6 2 21 0.5 7.4 1 19.4 1 26.5 0 7.1-0.5 19.1-1 26.5-0.6 7.4-1.7 18-2.6 23.5-0.8 5.5-2.6 15.2-4 21.5-1.4 6.3-4.4 17.8-6.6 25.5-2.2 7.7-7 21.4-17.3 47l-40.5 0.6c-28.4 0.4-41.7 1-44.5 1.9-2.2 0.7-5.8 2.2-8 3.3-2.4 1.1-15 12.9-30.8 28.6-20.5 20.3-27.5 27.9-29.7 32.1-1.9 3.6-3 5-3.4 4-0.3-0.8-3.7-12.5-7.5-26-3.8-13.5-10.4-36.4-14.6-51-4.2-14.6-7.9-26.8-8.1-27.3-0.2-0.4 2-3.3 4.9-6.5 2.8-3.2 8-9.9 11.3-14.8 3.4-4.9 8.4-13.4 11.2-18.9 2.8-5.5 6.7-14.7 8.6-20.5 1.9-5.8 4.5-16.1 5.7-23 1.8-10.6 2.1-14.9 1.6-29-0.4-10.8-1.3-19.8-2.6-26-1.1-5.2-3.7-14.2-5.7-20-2-5.8-5.2-13.6-7.1-17.5-2-3.9-5.8-10.6-8.6-15-2.7-4.4-7.5-11.1-10.7-15-3.2-3.9-9.3-10.4-13.6-14.6-4.4-4.1-11-10-14.9-13.1-3.9-3.1-10.1-7.5-14-9.8-3.9-2.4-11.5-6.4-17-9-5.5-2.6-13.6-5.9-18-7.4-4.4-1.4-12-3.5-17-4.5-5-1.1-14.2-2.5-20.5-3.2-6.4-0.6-16.2-0.9-22-0.5-5.8 0.3-14.8 1.3-20 2.2-5.2 0.9-14.5 3.1-20.5 4.9-6 1.9-14.4 4.8-18.5 6.4-4.1 1.7-11.5 5.4-16.5 8.3-5 2.8-12.4 7.6-16.5 10.6-4.1 3-11.7 9.6-16.9 14.6-5.1 5-12.5 13.2-16.3 18.1-3.9 4.9-9.4 13.3-12.3 18.5-3 5.2-6.8 12.9-8.6 17-1.7 4.1-4.4 11.8-5.9 17-1.5 5.2-3.3 12.6-4.1 16.5-0.9 4.6-1.4 13.8-1.4 26.5 0 16.9 0.3 20.9 2.4 30 1.3 5.8 3.7 14.3 5.3 19 1.7 4.7 5 12.5 7.5 17.5 2.5 5 6.6 12.1 9 16 2.5 3.9 6.5 9.5 8.9 12.5 2.4 3 4.4 6.1 4.4 6.7 0 0.7-3.6 13.6-8.1 28.5-4.4 15-11.9 39.9-16.6 55.3-4.6 15.4-9.7 32-11.3 37-1.6 5-5.8 19.2-9.4 31.7-4.9 16.8-6.6 24.4-6.6 34.8l-4.7-2.6c-2.7-1.5-9.3-5.9-14.8-9.8-5.5-3.9-14.1-10.4-19-14.5-4.9-4.1-14.6-13.1-21.5-20-6.9-6.9-16.4-17.3-21.1-23.1-4.7-5.8-11.3-14.3-14.6-19-3.4-4.7-9-13.2-12.6-19-3.5-5.8-8.9-15.2-12-21-3.1-5.8-8.3-16.8-11.5-24.5-3.3-7.7-7.8-19.4-10-26-2.2-6.6-5.9-19.2-8.1-28-2.2-8.8-4.7-19.8-5.5-24.5-0.9-4.7-2.2-14.6-3-22-0.8-7.4-1.8-20-2.1-28-0.5-9.9-0.2-20.7 0.9-34 0.9-10.7 2.4-24 3.2-29.5 0.9-5.5 2.7-15 4.1-21 1.3-6.1 3.8-15.7 5.4-21.5 1.7-5.8 4.6-15 6.5-20.5 1.9-5.5 5.6-14.7 8.1-20.5 2.5-5.8 6.6-14.6 9.1-19.5 2.4-4.9 7.8-14.6 12-21.5 4.1-6.9 10.9-17.2 15-23 4.1-5.8 11.7-15.4 16.7-21.5 5.1-6.1 13.9-15.7 19.6-21.4 5.7-5.8 14.2-13.8 18.9-17.9 4.7-4.1 13.4-11.2 19.5-15.7 6.1-4.6 16.2-11.6 22.5-15.6 6.3-4 18.3-10.7 26.5-14.9 8.3-4.2 20.9-10 28-12.8 7.1-2.8 19.8-7.1 28-9.5 8.3-2.5 22-5.9 30.5-7.5 8.5-1.7 20.5-3.5 26.5-4.1 6-0.6 12.6-1.3 14.5-1.4 1.9-0.2 12.3-0.5 23-0.5zm-59 83c-2.9 1.5-5.3 3.7-6.8 6.3-1.9 3.3-2.2 5.2-2 10.6 0.3 5.5 0.8 7.2 3.3 10.4 1.6 2.1 4.5 4.5 6.3 5.2 2.5 1 15.6 1.3 61 1.3 57.3 0 57.7 0 61.2-2.2 1.9-1.1 4.3-3.1 5.2-4.2 0.9-1.2 2.2-4.1 2.8-6.6 0.9-3.4 0.9-5.7 0-9.5-0.6-2.8-1.9-5.9-2.8-7.1-0.9-1.1-3.3-3.1-5.2-4.2-3.5-2.2-3.9-2.2-61-2.2h-57.5zm124.5 333.2l4.5 2.4c2.5 1.3 6.2 4 8.3 6 2.1 2 4.8 5.4 5.9 7.6 1.1 2.2 7 20.9 13 41.5 6.1 20.7 14.8 50.6 19.4 66.5 4.7 16 11.6 40.2 15.4 53.8 4.7 16.6 7 26.5 7 30 0 2.9-0.9 7-1.9 9.2-1 2.2-3.1 5.4-4.7 7-1.7 1.7-4.8 3.9-7 5-3.8 2-5.9 2-255.1 2l-4.8-3c-3.1-1.8-6.1-4.8-8-7.9-2.2-3.6-3.1-6.5-3.4-10.5-0.2-3.9 0.4-8 2.3-14.1 1.4-4.6 6.3-21.3 11-37 4.6-15.6 13.9-46.7 20.5-69 6.6-22.2 13.8-47 16.2-55 2.3-7.9 5-16 5.9-18 1-1.9 3.5-5.2 5.6-7.3 2.2-2.1 5.7-4.8 7.9-5.9 2.1-1.1 5.1-2.4 6.5-2.8 1.4-0.5 32.4-0.7 135.5-0.5zm212 94.3c15.5 0.4 18.7 0.8 22.9 2.6 4 1.8 12.4 9.7 46.3 43.9 38.1 38.5 41.5 42.2 43.4 47.5 2.2 5.7 2.2 6.5 2 70.7-0.1 36.6-0.6 66.6-1.1 68.5-0.5 2-2.3 5.7-4 8.3-1.6 2.6-5.1 6.2-7.6 8-2.5 1.8-6.6 4-9.2 5-4.3 1.5-11.9 1.7-169.2 1.7l-5.8-2.2c-3.1-1.2-7.5-3.5-9.6-5.2-2.2-1.7-5.5-6-11.1-16.1l-0.3-81.5c-0.2-70.1 0-82.3 1.3-87.2 0.8-3.2 2.5-7.2 3.7-9 1.3-1.8 13.1-13.9 26.3-26.9 13.2-12.9 25.6-24.4 27.5-25.4 2.5-1.3 6.8-2 15-2.5 6.3-0.4 19.6-0.5 29.5-0.2zm-27.9 42.5c-2.1 1.8-5 5.5-6.4 8.2-1.3 2.8-2.7 7.3-3 10-0.3 3.4 0.1 6.8 1.3 10.5 1.1 3.1 3.5 7.3 5.5 9.5 2.1 2.2 6.1 5.1 9.1 6.4 4.5 2 6.6 2.3 12.4 1.9 5.2-0.3 8-1.1 11-2.9 2.2-1.4 5.7-4.5 7.7-6.9 2.4-2.9 4.2-6.3 4.9-9.5 0.7-2.7 0.9-7.4 0.5-10.5-0.3-3-1.7-7.3-3-9.5-1.3-2.2-4.1-5.4-6.2-7.2-2.2-1.8-6.2-4-8.9-4.8-2.8-0.8-6.6-1.4-8.5-1.4-1.9 0-5.5 0.7-8 1.5-2.5 0.7-6.3 2.9-8.4 4.7zm-32 120.4c-1.3 2.6-1.7 4.9-1.2 7.3 0.3 2 1.4 4.7 2.4 6 1 1.4 3.4 3.3 5.3 4.3 3.1 1.6 8.1 1.7 60.1 1.7 48.3 0 57.3-0.2 60.3-1.5 1.9-0.8 4.4-2.9 5.5-4.7 1.1-1.8 2-4.9 2-7 0-2.1-0.7-5.1-1.5-6.8-0.8-1.6-2.7-3.9-4.3-5-2.6-2-3.9-2-61.7-2-55.9 0.1-59.2 0.2-62 2-1.7 1-3.8 3.6-4.9 5.7zm-93.1 1.8v67l-3 6c-1.6 3.3-4.7 7.8-7 10-2.2 2.2-6.5 5.1-15 9h-204l-4.5-2.2c-2.5-1.2-6.3-3.7-8.4-5.5-2.2-1.8-5-4.9-6.3-7-1.3-2.1-3-6.3-3.8-9.5-1.2-4.4-1.6-12.8-1.7-36.4-0.2-26.1 0-30.8 1.2-31.1 0.8-0.3 58-0.4 252.5-0.3z"/></svg>